<?xml version="1.0" encoding="UTF-8" standalone="no"?>
<svg
   xmlns:dc="http://purl.org/dc/elements/1.1/"
   xmlns:cc="http://creativecommons.org/ns#"
   xmlns:rdf="http://www.w3.org/1999/02/22-rdf-syntax-ns#"
   xmlns:svg="http://www.w3.org/2000/svg"
   xmlns="http://www.w3.org/2000/svg"
   viewBox="0 0 663.11673 223.83568"
   height="223.83568"
   width="663.11676"
   xml:space="preserve"
   id="svg1521"
   version="1.1">
  <metadata
     id="metadata1527">
    <rdf:RDF>
      <cc:Work
         rdf:about="">
        <dc:format>image/svg+xml</dc:format>
        <dc:type
           rdf:resource="http://purl.org/dc/dcmitype/StillImage" />
        <dc:title></dc:title>
      </cc:Work>
    </rdf:RDF>
  </metadata>
  <defs
     id="defs1525">
    <clipPath
       id="clipPath1539"
       clipPathUnits="userSpaceOnUse">
      <path
         id="path1537"
         d="M 0,0 H 800 V 400 H 0 Z" />
    </clipPath>
    <clipPath
       id="clipPath1555"
       clipPathUnits="userSpaceOnUse">
      <path
         id="path1553"
         d="m 93.15737,159.995 h 80.35193 v 80.00998 H 93.15737 Z" />
    </clipPath>
    <clipPath
       id="clipPath1569"
       clipPathUnits="userSpaceOnUse">
      <path
         id="path1567"
         d="M 0,0 H 800 V 400 H 0 Z" />
    </clipPath>
    <clipPath
       id="clipPath1617"
       clipPathUnits="userSpaceOnUse">
      <path
         id="path1615"
         d="m 226.4907,159.995 h 80.35193 v 80.00998 H 226.4907 Z" />
    </clipPath>
    <clipPath
       id="clipPath1631"
       clipPathUnits="userSpaceOnUse">
      <path
         id="path1629"
         d="M 0,0 H 800 V 400 H 0 Z" />
    </clipPath>
    <clipPath
       id="clipPath1645"
       clipPathUnits="userSpaceOnUse">
      <path
         id="path1643"
         d="m 359.824,159.995 h 80.35193 v 80.00998 H 359.824 Z" />
    </clipPath>
    <clipPath
       id="clipPath1665"
       clipPathUnits="userSpaceOnUse">
      <path
         id="path1663"
         d="M 0,0 H 800 V 400 H 0 Z" />
    </clipPath>
    <clipPath
       id="clipPath1679"
       clipPathUnits="userSpaceOnUse">
      <path
         id="path1677"
         d="m 493.1574,159.995 h 80.35193 v 80.00998 H 493.1574 Z" />
    </clipPath>
    <clipPath
       id="clipPath1693"
       clipPathUnits="userSpaceOnUse">
      <path
         id="path1691"
         d="M 0,0 H 800 V 400 H 0 Z" />
    </clipPath>
  </defs>
  <g
     transform="matrix(1.3333333,0,0,-1.3333333,-122.88608,329.417)"
     id="g1529">
    <g
       id="g1531" />
    <g
       id="g1533">
      <g
         clip-path="url(#clipPath1539)"
         id="g1535" />
    </g>
    <g
       transform="translate(7.5000062,-15.000004)"
       id="g1905">
      <path
         d="m 161.742,228.2878 c 15.6897,-15.6229 15.6897,-40.9527 0,-56.5756 -15.6897,-15.6229 -41.1277,-15.6229 -56.8174,0 -15.68965,15.6229 -15.68965,40.9527 0,56.5756 15.6897,15.6229 41.1277,15.6229 56.8174,0 z"
         style="fill:#d8f1ff;fill-opacity:1;fill-rule:nonzero;stroke:none"
         id="path1543" />
      <g
         id="g1545"
         transform="matrix(1,0,0,-1,93.157367,240.005)">
        <path
           d="m 68.58466,11.71719 c 15.68969,15.62292 15.68969,40.95268 0,56.5756 -15.68969,15.62292 -41.1277,15.62292 -56.81739,0 -15.689693,-15.62292 -15.689693,-40.95268 0,-56.5756 15.68969,-15.62292 41.1277,-15.62292 56.81739,0 z"
           style="fill:none;stroke:#0076ba;stroke-width:2;stroke-linecap:butt;stroke-linejoin:miter;stroke-miterlimit:4;stroke-dasharray:none;stroke-opacity:1"
           id="path1547" />
      </g>
      <g
         id="g1549">
        <g
           id="g1551"
           clip-path="url(#clipPath1555)">
          <g
             id="g1557"
             transform="translate(115.1792,196.3212)">
            <text
               transform="scale(1,-1)"
               style="font-variant:normal;font-weight:normal;font-size:10px;font-family:Avenir;-inkscape-font-specification:Avenir-Book;writing-mode:lr-tb;fill:#004d80;fill-opacity:1;fill-rule:nonzero;stroke:none"
               id="text1561"><tspan
                 x="0 5.5599999 11.12 14.44 19.26 21.66 26.48 32.040001"
                 y="0"
                 id="tspan1559">Services</tspan></text>
          </g>
        </g>
      </g>
      <g
         id="g1563">
        <g
           id="g1565"
           clip-path="url(#clipPath1569)">
          <g
             id="g1571"
             transform="matrix(1,0,0,-1,174.5011,200)">
            <path
               d="M 50.98959,0 H 6 5.5"
               style="fill:none;stroke:#007cbb;stroke-width:1;stroke-linecap:butt;stroke-linejoin:miter;stroke-miterlimit:4;stroke-dasharray:none;stroke-opacity:1"
               id="path1573" />
          </g>
          <path
             d="m 180.5011,203 -6,-3 6,-3 z"
             style="fill:#007cbb;fill-opacity:1;fill-rule:nonzero;stroke:none"
             id="path1575" />
          <g
             id="g1577"
             transform="matrix(1,0,0,-1,162.4658,242.4264)">
            <path
               d="M 0,13.44848 C 23.35851,-3.290195 46.71702,-4.403503 70.07553,10.10856 l 0.41654,0.27862"
               style="fill:none;stroke:#007cbb;stroke-width:1;stroke-linecap:butt;stroke-linejoin:miter;stroke-miterlimit:4;stroke-dasharray:2, 2;stroke-dashoffset:0;stroke-opacity:1"
               id="path1579" />
          </g>
          <path
             d="m 230.8743,229.8236 6.6551,-0.8423 -3.3192,5.8295 z"
             style="fill:#007cbb;fill-opacity:1;fill-rule:nonzero;stroke:none"
             id="path1581" />
          <g
             id="g1583"
             transform="translate(109.8253,135.32484)">
            <text
               transform="scale(1,-1)"
               style="font-variant:normal;font-weight:500;font-size:9px;font-family:Avenir;-inkscape-font-specification:Avenir-Medium;writing-mode:lr-tb;fill:#000000;fill-opacity:1;fill-rule:nonzero;stroke:none"
               id="text1587"><tspan
                 x="0 6.336 11.835 16.506001 21.51 26.514 30.51 34.506001 36.666 42.012001"
                 y="0"
                 id="tspan1585">URLSession</tspan></text>
          </g>
          <g
             id="g1589"
             transform="translate(109.8253,139.294)" />
          <g
             id="g1591"
             transform="translate(107.0848,123.32484)">
            <text
               transform="scale(1,-1)"
               style="font-variant:normal;font-weight:500;font-size:9px;font-family:Avenir;-inkscape-font-specification:Avenir-Medium;writing-mode:lr-tb;fill:#000000;fill-opacity:1;fill-rule:nonzero;stroke:none"
               id="text1595"><tspan
                 x="0 6.336 10.332 15.336 18.666 25.334999 30.339001 33.335999 38.007 43.011002 45.171001 48.500999"
                 y="0"
                 id="tspan1593">UserDefaults</tspan></text>
          </g>
          <g
             id="g1597"
             transform="translate(107.0848,127.294)" />
          <path
             d="m 295.0754,228.2878 c 15.6897,-15.6229 15.6897,-40.9527 0,-56.5756 -15.6897,-15.6229 -41.1277,-15.6229 -56.8174,0 -15.6897,15.6229 -15.6897,40.9527 0,56.5756 15.6897,15.6229 41.1277,15.6229 56.8174,0 z"
             style="fill:#d8f1ff;fill-opacity:1;fill-rule:nonzero;stroke:none"
             id="path1605" />
          <g
             id="g1607"
             transform="matrix(1,0,0,-1,226.4907,240.005)">
            <path
               d="m 68.58466,11.71719 c 15.68969,15.62292 15.68969,40.95268 0,56.5756 -15.68969,15.62292 -41.1277,15.62292 -56.81739,0 -15.689693,-15.62292 -15.689693,-40.95268 0,-56.5756 15.68969,-15.62292 41.1277,-15.62292 56.81739,0 z"
               style="fill:none;stroke:#0076ba;stroke-width:2;stroke-linecap:butt;stroke-linejoin:miter;stroke-miterlimit:4;stroke-dasharray:none;stroke-opacity:1"
               id="path1609" />
          </g>
        </g>
      </g>
      <g
         id="g1611">
        <g
           id="g1613"
           clip-path="url(#clipPath1617)">
          <g
             id="g1619"
             transform="translate(252.2126,196.5868)">
            <text
               transform="scale(1,-1)"
               style="font-variant:normal;font-weight:normal;font-size:10px;font-family:Avenir;-inkscape-font-specification:Avenir-Book;writing-mode:lr-tb;fill:#004d80;fill-opacity:1;fill-rule:nonzero;stroke:none"
               id="text1623"><tspan
                 x="0 8.8999996 14.83 20.940001 26.5"
                 y="0"
                 id="tspan1621">Model</tspan></text>
          </g>
        </g>
      </g>
      <g
         id="g1625">
        <g
           id="g1627"
           clip-path="url(#clipPath1631)">
          <path
             d="m 428.4087,228.2878 c 15.6897,-15.6229 15.6897,-40.9527 0,-56.5756 -15.6897,-15.6229 -41.1277,-15.6229 -56.8174,0 -15.6897,15.6229 -15.6897,40.9527 0,56.5756 15.6897,15.6229 41.1277,15.6229 56.8174,0 z"
             style="fill:#d8f1ff;fill-opacity:1;fill-rule:nonzero;stroke:none"
             id="path1633" />
          <g
             id="g1635"
             transform="matrix(1,0,0,-1,359.824,240.005)">
            <path
               d="m 68.58466,11.71719 c 15.68969,15.62292 15.68969,40.95268 0,56.5756 -15.68969,15.62292 -41.1277,15.62292 -56.81739,0 -15.689693,-15.62292 -15.689693,-40.95268 0,-56.5756 15.68969,-15.62292 41.1277,-15.62292 56.81739,0 z"
               style="fill:none;stroke:#0076ba;stroke-width:2;stroke-linecap:butt;stroke-linejoin:miter;stroke-miterlimit:4;stroke-dasharray:none;stroke-opacity:1"
               id="path1637" />
          </g>
        </g>
      </g>
      <g
         id="g1639">
        <g
           id="g1641"
           clip-path="url(#clipPath1645)">
          <g
             id="g1647"
             transform="translate(375.8459,203.2275)">
            <text
               transform="scale(1,-1)"
               style="font-variant:normal;font-weight:normal;font-size:10px;font-family:Avenir;-inkscape-font-specification:Avenir-Book;writing-mode:lr-tb;fill:#004d80;fill-opacity:1;fill-rule:nonzero;stroke:none"
               id="text1651"><tspan
                 x="0 7.04 12.97 18.530001 21.85 24.99 30.92 33.32 35.720001 41.279999 44.599998"
                 y="0"
                 id="tspan1649">Controller/</tspan></text>
          </g>
          <g
             id="g1653"
             transform="translate(389.3209,189.2275)">
            <text
               transform="scale(1,-1)"
               style="font-variant:normal;font-weight:normal;font-size:10px;font-family:Avenir;-inkscape-font-specification:Avenir-Book;writing-mode:lr-tb;fill:#004d80;fill-opacity:1;fill-rule:nonzero;stroke:none"
               id="text1657"><tspan
                 x="0 6.1700001 8.5699997 14.13"
                 y="0"
                 id="tspan1655">View</tspan></text>
          </g>
        </g>
      </g>
      <g
         id="g1659">
        <g
           id="g1661"
           clip-path="url(#clipPath1665)">
          <path
             d="m 561.742,228.2878 c 15.6897,-15.6229 15.6897,-40.9527 0,-56.5756 -15.6896,-15.6229 -41.1277,-15.6229 -56.8174,0 -15.6896,15.6229 -15.6896,40.9527 0,56.5756 15.6897,15.6229 41.1278,15.6229 56.8174,0 z"
             style="fill:#d8f1ff;fill-opacity:1;fill-rule:nonzero;stroke:none"
             id="path1667" />
          <g
             id="g1669"
             transform="matrix(1,0,0,-1,493.1574,240.005)">
            <path
               d="m 68.58466,11.71719 c 15.68969,15.62292 15.68969,40.95268 0,56.5756 -15.68969,15.62292 -41.1277,15.62292 -56.81739,0 -15.689693,-15.62292 -15.689693,-40.95268 0,-56.5756 15.68969,-15.62292 41.1277,-15.62292 56.81739,0 z"
               style="fill:none;stroke:#0076ba;stroke-width:2;stroke-linecap:butt;stroke-linejoin:miter;stroke-miterlimit:4;stroke-dasharray:none;stroke-opacity:1"
               id="path1671" />
          </g>
        </g>
      </g>
      <g
         id="g1673">
        <g
           id="g1675"
           clip-path="url(#clipPath1679)">
          <g
             id="g1681"
             transform="translate(522.6543,196.79)">
            <text
               transform="scale(1,-1)"
               style="font-variant:normal;font-weight:normal;font-size:10px;font-family:Avenir;-inkscape-font-specification:Avenir-Book;writing-mode:lr-tb;fill:#004d80;fill-opacity:1;fill-rule:nonzero;stroke:none"
               id="text1685"><tspan
                 x="0 6.1700001 8.5699997 14.13"
                 y="0"
                 id="tspan1683">View</tspan></text>
          </g>
        </g>
      </g>
      <g
         id="g1687">
        <g
           id="g1689"
           clip-path="url(#clipPath1693)">
          <g
             id="g1695"
             transform="matrix(1,0,0,-1,307.8345,200)">
            <path
               d="M 50.98958,0 C 35.99305,0 20.99653,0 6,0 H 5.5"
               style="fill:none;stroke:#007cbb;stroke-width:1;stroke-linecap:butt;stroke-linejoin:miter;stroke-miterlimit:4;stroke-dasharray:none;stroke-opacity:1"
               id="path1697" />
          </g>
          <path
             d="m 313.8345,203 -6,-3 6,-3 z"
             style="fill:#007cbb;fill-opacity:1;fill-rule:nonzero;stroke:none"
             id="path1699" />
          <g
             id="g1701"
             transform="matrix(1,0,0,-1,441.1678,200)">
            <path
               d="m 45.48959,0 h -0.5 C 29.99306,0 14.99653,0 0,0"
               style="fill:none;stroke:#007cbb;stroke-width:1;stroke-linecap:butt;stroke-linejoin:miter;stroke-miterlimit:4;stroke-dasharray:none;stroke-opacity:1"
               id="path1703" />
          </g>
          <path
             d="m 486.1574,197 6,3 -6,3 z"
             style="fill:#007cbb;fill-opacity:1;fill-rule:nonzero;stroke:none"
             id="path1705" />
          <g
             id="g1707"
             transform="matrix(1,0,0,-1,294.4496,246.5627)">
            <path
               d="m 73.95183,12.44499 -0.3953,-0.30617 C 49.3845,-5.330507 24.86583,-3.944219 0,16.29729"
               style="fill:none;stroke:#007cbb;stroke-width:1;stroke-linecap:butt;stroke-linejoin:miter;stroke-miterlimit:4;stroke-dasharray:2, 2;stroke-dashoffset:0;stroke-opacity:1"
               id="path1709" />
          </g>
          <path
             d="m 366.1692,232.0521 6.5806,-1.3022 -2.9066,6.0458 z"
             style="fill:#007cbb;fill-opacity:1;fill-rule:nonzero;stroke:none"
             id="path1711" />
          <g
             id="g1713"
             transform="matrix(1,0,0,-1,428.9122,244.3125)">
            <path
               d="M 76.57342,14.09893 C 53.36973,-3.841275 29.47777,-4.660449 4.897537,11.64141 L 4.48869,11.9309"
               style="fill:none;stroke:#007cbb;stroke-width:1;stroke-linecap:butt;stroke-linejoin:miter;stroke-miterlimit:4;stroke-dasharray:2, 2;stroke-dashoffset:0;stroke-opacity:1"
               id="path1715" />
          </g>
          <path
             d="m 432.0754,235.1189 -3.1632,-5.9156 6.6304,1.0189 z"
             style="fill:#007cbb;fill-opacity:1;fill-rule:nonzero;stroke:none"
             id="path1717" />
          <g
             id="g1719"
             transform="translate(253.5852,139.294)">
            <text
               transform="scale(1,-1)"
               style="font-variant:normal;font-weight:500;font-size:9px;font-family:Avenir;-inkscape-font-specification:Avenir-Medium;writing-mode:lr-tb;fill:#000000;fill-opacity:1;fill-rule:nonzero;stroke:none"
               id="text1723"><tspan
                 x="0 8.1540003 13.5 18.999001 24.003"
                 y="0"
                 id="tspan1721">Model</tspan></text>
          </g>
          <g
             id="g1725"
             transform="translate(253.5852,139.294)" />
          <g
             id="g1727"
             transform="translate(256.3302,127.294)">
            <text
               transform="scale(1,-1)"
               style="font-variant:normal;font-weight:500;font-size:9px;font-family:Avenir;-inkscape-font-specification:Avenir-Medium;writing-mode:lr-tb;fill:#000000;fill-opacity:1;fill-rule:nonzero;stroke:none"
               id="text1731"><tspan
                 x="0 5.1659999 10.17 15.174"
                 y="0"
                 id="tspan1729">Feed</tspan></text>
          </g>
          <g
             id="g1733"
             transform="translate(256.3302,127.294)" />
          <g
             id="g1735"
             transform="translate(253.3377,115.294)">
            <text
               transform="scale(1,-1)"
               style="font-variant:normal;font-weight:500;font-size:9px;font-family:Avenir;-inkscape-font-specification:Avenir-Medium;writing-mode:lr-tb;fill:#000000;fill-opacity:1;fill-rule:nonzero;stroke:none"
               id="text1739"><tspan
                 x="0 6.336 9.6660004 12.996 15.156 19.493999 21.653999"
                 y="0"
                 id="tspan1737">Article</tspan></text>
          </g>
          <g
             id="g1741"
             transform="translate(358.8295,145.294)">
            <text
               transform="scale(1,-1)"
               style="font-variant:normal;font-weight:500;font-size:9px;font-family:Avenir;-inkscape-font-specification:Avenir-Medium;writing-mode:lr-tb;fill:#000000;fill-opacity:1;fill-rule:nonzero;stroke:none"
               id="text1745"><tspan
                 x="0 6.336 13.167 15.327 20.493 25.497 30.500999 36 41.499001 46.502998 51.174 56.673 61.676998 65.007004 71.343002 76.842003"
                 y="0"
                 id="tspan1743">CwlFeedReaderApp</tspan></text>
          </g>
          <g
             id="g1747"
             transform="translate(358.8295,145.294)" />
          <g
             id="g1749"
             transform="translate(373.5715,133.294)">
            <text
               transform="scale(1,-1)"
               style="font-variant:normal;font-weight:500;font-size:9px;font-family:Avenir;-inkscape-font-specification:Avenir-Medium;writing-mode:lr-tb;fill:#000000;fill-opacity:1;fill-rule:nonzero;stroke:none"
               id="text1753"><tspan
                 x="0 6.336 11.682 16.686001 20.016001 25.02 30.024 33.354 38.862 41.021999 46.026001"
                 y="0"
                 id="tspan1751">ContentView</tspan></text>
          </g>
          <g
             id="g1755"
             transform="translate(373.5715,133.294)" />
          <g
             id="g1757"
             transform="translate(376.2535,121.294)">
            <text
               transform="scale(1,-1)"
               style="font-variant:normal;font-weight:500;font-size:9px;font-family:Avenir;-inkscape-font-specification:Avenir-Medium;writing-mode:lr-tb;fill:#000000;fill-opacity:1;fill-rule:nonzero;stroke:none"
               id="text1761"><tspan
                 x="0 6.6690001 11.673 15.003 19.674 21.834 23.993999 27.99 33.498001 35.658001 40.661999"
                 y="0"
                 id="tspan1759">DetailsView</tspan></text>
          </g>
          <g
             id="g1763"
             transform="translate(376.2535,121.294)" />
          <g
             id="g1765"
             transform="translate(383.17,109.294)">
            <text
               transform="scale(1,-1)"
               style="font-variant:normal;font-weight:500;font-size:9px;font-family:Avenir;-inkscape-font-specification:Avenir-Medium;writing-mode:lr-tb;fill:#000000;fill-opacity:1;fill-rule:nonzero;stroke:none"
               id="text1769"><tspan
                 x="0 4.671 6.8309999 10.827 14.157 19.665001 21.825001 26.829"
                 y="0"
                 id="tspan1767">ListView</tspan></text>
          </g>
          <g
             id="g1771"
             transform="translate(514.2129,139.294)">
            <text
               transform="scale(1,-1)"
               style="font-variant:normal;font-weight:500;font-size:9px;font-family:Avenir;-inkscape-font-specification:Avenir-Medium;writing-mode:lr-tb;fill:#000000;fill-opacity:1;fill-rule:nonzero;stroke:none"
               id="text1775"><tspan
                 x="0 8.2349997 13.239 18.738001 24.246 26.406 31.41"
                 y="0"
                 id="tspan1773">WebView</tspan></text>
          </g>
          <g
             id="g1777"
             transform="translate(514.2129,139.294)" />
          <g
             id="g1779"
             transform="translate(524.7474,127.294)">
            <text
               transform="scale(1,-1)"
               style="font-variant:normal;font-weight:500;font-size:9px;font-family:Avenir;-inkscape-font-specification:Avenir-Medium;writing-mode:lr-tb;fill:#000000;fill-opacity:1;fill-rule:nonzero;stroke:none"
               id="text1783"><tspan
                 x="0 4.1669998 9.1709995 13.842"
                 y="0"
                 id="tspan1781">Text</tspan></text>
          </g>
          <g
             id="g1785"
             transform="translate(524.7474,127.294)" />
          <g
             id="g1787"
             transform="translate(519.4914,115.294)">
            <text
               transform="scale(1,-1)"
               style="font-variant:normal;font-weight:500;font-size:9px;font-family:Avenir;-inkscape-font-specification:Avenir-Medium;writing-mode:lr-tb;fill:#000000;fill-opacity:1;fill-rule:nonzero;stroke:none"
               id="text1791"><tspan
                 x="0 5.6700001 10.674 14.004 17.334 22.68"
                 y="0"
                 id="tspan1789">Button</tspan></text>
          </g>
        </g>
      </g>
    </g>
  </g>
</svg>
