<svg xmlns="http://www.w3.org/2000/svg" viewBox="0 0 247.145 229.943"><g data-name="Layer 2"><g data-name="ART"><path d="M150.63 60.21H54.08a3.354 3.354 0 00-2.948 1.755L1.665 153.189a3.354 3.354 0 002.949 4.953H36.69l31.555-61.829 45.941 60.504a3.354 3.354 0 002.671 1.325h88.975a3.354 3.354 0 002.87-5.09L153.5 61.827a3.354 3.354 0 00-2.87-1.617z" fill="#94a727"/><path d="M190.618 158.142l-4.91 64.283a6.781 6.781 0 01-6.761 6.265H31.953a6.781 6.781 0 01-6.771-6.412l-3.498-64.136L59.78 82.46h87.738z" fill="#fff8e9"/><path d="M178.55 229.943H32.36a8.467 8.467 0 01-8.452-8.003l-3.477-63.73a1.262 1.262 0 01.132-.63L58.66 81.895a1.255 1.255 0 011.12-.69h87.738a1.253 1.253 0 011.089.634l43.1 75.682a1.253 1.253 0 01.16.716l-4.878 63.886a8.502 8.502 0 01-8.44 7.82zM22.952 158.408l3.459 63.396a5.957 5.957 0 005.948 5.632h146.19a5.983 5.983 0 005.939-5.503l4.85-63.503-42.55-74.716H60.553z" fill="#3e4147"/><path d="M150.63 60.21H54.08a3.354 3.354 0 00-2.948 1.755L1.665 153.189a3.354 3.354 0 002.949 4.953h17.07l37.344-74.188 55.16 72.863a3.354 3.354 0 002.67 1.325h88.975a3.354 3.354 0 002.87-5.09L153.5 61.827a3.354 3.354 0 00-2.87-1.617z" fill="#94a727"/><path d="M205.833 159.396h-88.975a4.631 4.631 0 01-3.669-1.822l-53.946-71.26-36.44 72.392a1.255 1.255 0 01-1.12.69H4.613a4.61 4.61 0 01-4.05-6.804L50.03 61.367a4.601 4.601 0 014.05-2.411h96.55a4.63 4.63 0 013.94 2.223l55.203 91.223a4.608 4.608 0 01-3.941 6.994zM59.028 82.7a1.252 1.252 0 01.999.497l55.16 72.864a2.113 2.113 0 001.671.829h88.975a2.1 2.1 0 001.796-3.188l-55.202-91.224a2.11 2.11 0 00-1.797-1.013H54.08a2.097 2.097 0 00-1.845 1.099L2.766 153.786a2.101 2.101 0 001.848 3.102H20.91l36.997-73.5a1.254 1.254 0 011.007-.684 1.1 1.1 0 01.113-.006z" fill="#3e4147"/><path d="M21.856 162.714L20.77 146.34l32.779-63.92a2.52 2.52 0 014.27-.347l14.18 19.182 10.678 14.06" fill="#fff8e9"/><path d="M21.855 163.969a1.255 1.255 0 01-1.25-1.171l-1.087-16.376a1.26 1.26 0 01.136-.655l32.78-63.92a3.774 3.774 0 016.392-.52l14.18 19.183 10.668 14.046a1.253 1.253 0 01-1.996 1.515l-10.677-14.058-14.19-19.197a1.266 1.266 0 00-1.122-.51 1.253 1.253 0 00-1.025.686l-32.621 63.61 1.064 16.03a1.254 1.254 0 01-1.168 1.334 1.24 1.24 0 01-.084.003zM107.787 229.943h-.05a1.255 1.255 0 01-1.204-1.301l2.887-75.424a1.272 1.272 0 011.3-1.205 1.255 1.255 0 011.205 1.3l-2.886 75.424a1.254 1.254 0 01-1.252 1.206z" fill="#3e4147"/><ellipse cx="61.454" cy="128.597" rx="11.16" ry="15.585" fill="#c4d7e9"/><path d="M61.454 145.437c-6.845 0-12.413-7.555-12.413-16.84s5.568-16.84 12.413-16.84 12.414 7.555 12.414 16.84-5.57 16.84-12.414 16.84zm0-31.171c-5.462 0-9.906 6.428-9.906 14.33 0 7.904 4.444 14.333 9.906 14.333 5.463 0 9.906-6.429 9.906-14.332 0-7.903-4.443-14.331-9.906-14.331z" fill="#3e4147"/><path d="M61.454 145.356a1.254 1.254 0 01-1.254-1.253v-31.091a1.254 1.254 0 112.508 0v31.09a1.254 1.254 0 01-1.254 1.254z" fill="#3e4147"/><path d="M71.999 129.892H50.303a1.254 1.254 0 110-2.508H72a1.254 1.254 0 010 2.508z" fill="#3e4147"/><path fill="#f3783c" d="M46.312 164.426h38.097v64.264H46.312z"/><path d="M84.409 229.943H46.312a1.254 1.254 0 01-1.254-1.254v-64.263a1.254 1.254 0 011.254-1.254H84.41a1.254 1.254 0 011.254 1.254v64.263a1.254 1.254 0 01-1.254 1.254zm-36.843-2.507h35.589V165.68H47.566z" fill="#3e4147"/><path fill="#df642f" d="M52.661 172.603h25.398v14.527H52.661z"/><path d="M78.06 188.384h-25.4a1.254 1.254 0 01-1.253-1.254v-14.527a1.254 1.254 0 011.254-1.254h25.398a1.254 1.254 0 011.254 1.254v14.527a1.254 1.254 0 01-1.254 1.254zm-24.145-2.508h22.89v-12.02h-22.89z" fill="#3e4147"/><path fill="#df642f" d="M52.661 208.624h25.398v14.527H52.661z"/><path d="M78.06 224.404h-25.4a1.254 1.254 0 01-1.253-1.254v-14.526a1.254 1.254 0 011.254-1.254h25.398a1.254 1.254 0 011.254 1.254v14.526a1.254 1.254 0 01-1.254 1.254zm-24.145-2.508h22.89v-12.018h-22.89z" fill="#3e4147"/><ellipse cx="55.499" cy="197.54" rx="4.666" ry="5.175" fill="#fdbe2a"/><path d="M55.5 203.969a6.45 6.45 0 115.919-6.429 6.197 6.197 0 01-5.92 6.429zm0-10.35a3.959 3.959 0 000 7.842 3.959 3.959 0 000-7.842z" fill="#3e4147"/><path fill="#c4d7e9" d="M171.762 202.715h-47.717l1.154-32.517h47.717l-1.154 32.517z"/><path d="M171.761 203.969h-47.716a1.254 1.254 0 01-1.253-1.3l1.154-32.516a1.255 1.255 0 011.253-1.209h47.718a1.254 1.254 0 011.253 1.3l-1.156 32.516a1.255 1.255 0 01-1.253 1.209zm-46.418-2.508h45.208l1.067-30.009h-45.21z" fill="#3e4147"/><path d="M148.481 203.969l-.05-.001a1.255 1.255 0 01-1.204-1.303l1.299-32.517a1.268 1.268 0 011.303-1.203 1.255 1.255 0 011.203 1.303l-1.299 32.517a1.255 1.255 0 01-1.252 1.204z" fill="#3e4147"/><path d="M172.917 187.71h-48.295a1.254 1.254 0 010-2.508h48.295a1.254 1.254 0 010 2.508z" fill="#3e4147"/><path fill="#cedd3e" d="M179.073 199.649h-60.897l3.175 12.186h54.547l3.175-12.186z"/><path d="M176.867 213.089h-56.485l-3.828-14.693h64.14zm-54.547-2.508h52.61l2.52-9.678h-57.652zM120.249 141.863c-18.295-23.01-32.69-41.02-43.379-54.318-17.075-20.941-17.678-20.462-17.678-20.462s-.604.48 15.95 21.836c10.547 13.411 24.85 31.494 43.145 54.505l2.738 3.443.395.497a5.351 5.351 0 00.694.801h3.782l8.19-.006 14.456-.02 2.502-.005c41.46-.195 41.46-1.221 41.46-1.221s0-1.026-41.46-1.222l-2.502-.005-14.455-.02-8.191-.005-2.13-.001h-.5l-.28-.353-2.737-3.444z" fill="#3e4147"/><path d="M200.876 50.396l-18.719 133.062a9.881 9.881 0 01-10.742 8.458l-10.027-.976a9.881 9.881 0 01-8.698-11.936l28.746-132.086a9.881 9.881 0 0112.451-7.376 9.881 9.881 0 016.99 10.854z" fill="#906e2d"/><path d="M172.393 193.217q-.545 0-1.098-.053l-10.028-.976a11.136 11.136 0 01-9.803-13.45L180.212 46.65a11.135 11.135 0 0121.906 3.92l-18.72 133.062a11.108 11.108 0 01-11.005 9.584zM191.07 40.385a8.648 8.648 0 00-8.41 6.8L153.915 179.27a8.63 8.63 0 007.595 10.421l10.028.976a8.607 8.607 0 009.379-7.385l18.72-133.062a8.652 8.652 0 00-8.566-9.836z" fill="#3e4147"/><path d="M160.372 14.894l4.72-3.218a3.338 3.338 0 012.247-.56l54.74 6.06a3.31 3.31 0 011.383.476c3.362 2.081 18.6 12.295 22.344 28.582a3.33 3.33 0 01-4.778 3.669c-9.459-4.832-28.501-11.832-38.2 3.683a3.345 3.345 0 01-2.708 1.58c-3.688.14-12.174.074-18.99-2.91a3.362 3.362 0 01-1.687-1.602c-1.671-3.436-7.879-14.14-18.929-10.569" fill="#c4d7e9"/><path d="M198.016 56.458c-4.25.001-11.44-.45-17.388-3.055a4.624 4.624 0 01-2.312-2.2c-1.533-3.155-7.324-13.183-17.416-9.926l-.771-2.384c12.014-3.885 18.684 7.6 20.44 11.212a2.116 2.116 0 001.064 1.001c6.653 2.915 15.11 2.933 18.439 2.807a2.09 2.09 0 001.691-.991c10.471-16.747 31.345-8.473 39.835-4.136a2.06 2.06 0 002.247-.22 1.984 1.984 0 00.739-2.051c-3.649-15.881-18.785-25.942-21.782-27.797a2.053 2.053 0 00-.862-.295l-54.738-6.06a2.06 2.06 0 00-1.403.348l-4.721 3.219-1.412-2.073 4.72-3.217a4.601 4.601 0 013.092-.77l54.738 6.06a4.563 4.563 0 011.906.656c3.146 1.948 19.033 12.517 22.905 29.367a4.494 4.494 0 01-1.64 4.591 4.569 4.569 0 01-4.93.475c-9.779-4.996-27.534-11.22-36.568 3.231a4.596 4.596 0 01-3.721 2.17c-.58.02-1.308.038-2.152.038z" fill="#3e4147"/><path d="M176.296 28.942c1.97-12.513-.421-23.284-5.341-24.06l-21.912-3.448-7.133 45.313 21.24 3.269a3.647 3.647 0 00.672.18c4.92.775 10.504-8.741 12.474-21.254z" fill="#c4d7e9"/><path d="M164.39 51.494a4.907 4.907 0 01-.763-.06 4.635 4.635 0 01-.783-.197l-22.367-3.442L148.001 0l23.149 3.645c2.923.46 5.154 3.512 6.283 8.593a47.129 47.129 0 01.102 16.9c-2.051 13.022-7.607 22.356-13.145 22.356zM143.344 45.7l20.23 3.137a2.321 2.321 0 00.442.122c3.618.57 9.054-7.59 11.042-20.21a44.598 44.598 0 00-.072-15.966c-.864-3.89-2.444-6.38-4.227-6.66l-20.672-3.255z" fill="#3e4147"/><ellipse cx="145.477" cy="24.09" rx="22.936" ry="9.017" transform="rotate(-81.054 145.477 24.09)" fill="#d8e9f7"/><path d="M142.478 48.045a4.907 4.907 0 01-.764-.06c-5.783-.91-8.528-11.87-6.383-25.492 2.143-13.62 8.111-23.207 13.908-22.298 2.923.46 5.154 3.513 6.282 8.594a47.123 47.123 0 01.102 16.898c-2.05 13.023-7.606 22.358-13.145 22.358zm-.373-2.536c3.622.576 9.055-7.59 11.041-20.212a44.593 44.593 0 00-.072-15.964c-.863-3.89-2.444-6.38-4.226-6.661-3.626-.549-9.054 7.59-11.04 20.212-1.988 12.62.67 22.053 4.297 22.625z" fill="#3e4147"/><path d="M193.03 23.801c5.234.764 9.72-.285 10.02-2.342l1.338-9.165-18.952-2.766-1.265 8.883a1.523 1.523 0 00-.073.282c-.3 2.057 3.7 4.345 8.933 5.108z" fill="#906e2d"/><path d="M196.365 25.305a24.425 24.425 0 01-3.515-.263c-5.325-.778-10.468-3.27-9.992-6.53a2.816 2.816 0 01.087-.384l1.428-10.022 21.437 3.128-1.52 10.406c-.13.892-.836 2.503-4.114 3.27a16.952 16.952 0 01-3.811.395zm-3.153-2.743a18.163 18.163 0 006.393-.094c1.543-.36 2.164-.91 2.205-1.19l1.156-7.924L186.5 10.95l-1.147 7.876c-.123.79 2.426 2.942 7.86 3.736z" fill="#3e4147"/><ellipse cx="194.912" cy="10.911" rx="3.765" ry="9.577" transform="rotate(-81.697 194.912 10.911)" fill="#b78d43"/><path d="M197.703 16.14a24.425 24.425 0 01-3.515-.263 20.412 20.412 0 01-6.983-2.22c-2.922-1.672-3.14-3.418-3.01-4.31.13-.892.839-2.502 4.115-3.269a22.577 22.577 0 0114.31 2.088c2.922 1.67 3.14 3.417 3.009 4.31-.13.891-.837 2.502-4.115 3.268a16.952 16.952 0 01-3.811.396zm-5.577-7.949a14.562 14.562 0 00-3.245.329c-1.543.36-2.164.909-2.205 1.189v.001c-.04.28.398.983 1.773 1.77a18.168 18.168 0 006.1 1.917 18.164 18.164 0 006.394-.094c1.543-.36 2.164-.91 2.205-1.19.041-.28-.397-.984-1.773-1.77a18.155 18.155 0 00-6.1-1.917 22.023 22.023 0 00-3.15-.235z" fill="#3e4147"/></g></g></svg>
